# xmcd
# 
# Track frame offsets:
#     150
#     9651
#     29259
#     41228
#     53067
#     68838
#     78738
#     95009
#     113378
#     132511
#     147699
#     170425
#     185905
#     203793
#     217663
# 
# Disc length: 3124
# 
# Revision: 2
# Processed by: cddbd v1.5.2PL0 Copyright (c) Steve Scherf et al.
# Submitted via: BonkEnc v1.0.8
# 
DISCID=dc0c320f
DTITLE=Various Artist - Celtic
DYEAR=2003
DGENRE=Country
TTITLE0=Tri Yann an Naoned - Les prisons de Nantes
TTITLE1=Alan Stivell - Tri Martolod
TTITLE2=Ar Grazeg Veurzh - An Alarc'h
TTITLE3=An Triskell - Dans Plinn
TTITLE4=Gilles Servat - Je dors en bretagne ce soir
TTITLE5=Glenmor - O Keltia
TTITLE6=Serge Kerval - Les amis
TTITLE7=The Dubliners - The wilde rover
TTITLE8=Tonnerre - Mon petit gar_on
TTITLE9=Soazig - Ar Soudarded
TTITLE10=Gulf Stream - Fenham
TTITLE11=Bagad du moulin - vent - Tons Simples et bals a huit
TTITLE12=Coute - Les Terres Neuves
TTITLE13=Bagad Quick en Croingne - La guigouillette
TTITLE14=Tri Yann - La jument de Michao
EXTD=
EXTT0=
EXTT1=
EXTT2=
EXTT3=
EXTT4=
EXTT5=
EXTT6=
EXTT7=
EXTT8=
EXTT9=
EXTT10=
EXTT11=
EXTT12=
EXTT13=
EXTT14=
PLAYORDER=
